<svg version="1.1" id="OBJECTS" xmlns="http://www.w3.org/2000/svg" x="0" y="0" viewBox="0 0 162.4 147.2" xml:space="preserve"><style>.st1{fill:#fff}.st2,.st3{fill:#fff;stroke:#1a1a1a;stroke-width:1.1491;stroke-miterlimit:10}.st3{fill:none;stroke-width:.5745;stroke-linecap:round;stroke-linejoin:round}.st5{fill:#1a1a1a}.st6,.st7{fill:none;stroke:#1a1a1a;stroke-width:1.1491;stroke-linecap:round;stroke-linejoin:round;stroke-miterlimit:10}.st7{fill:#fff}.st9{fill:#606060}.st10{fill:#53b29b}</style><path d="M25.8 66.6c-4.2 4.9-8 10.1-11.3 15.6-3.6 5.9-6.6 12.4-6.8 19.3-.4 16.7 16.3 23.6 30.3 19.3 12.2-3.8 22.9-10.2 35.1-14.1 15.4-4.9 30.1-7 45.8-9.9 31.4-5.8 58.9-46.4 21.8-66-19.9-10.5-46.2-4.3-66.2 2.6-18.7 6.4-35.7 18.2-48.7 33.2z" fill="#f8af60"/><path class="st1" d="M65.6 73.6h31.6v31.6H65.6z"/><path class="st2" d="M57.3 53.8S54.9 50.3 52 52s-2 8 0 11.1c2 3.1 5.1 4.7 6.9 2.3"/><path class="st3" d="M52.3 55.9s3.2-1.1 5.6 3.7M56.3 57.3s-3.5 1.9-1.2 4.7"/><path class="st2" d="M104.1 43.9S107 83.4 81 83.4c-25.9 0-23.9-39.5-23.9-39.5s-1.3-23.5 24.7-23.5c24.3 0 22.3 23.5 22.3 23.5z"/><path d="M79.5 51.5v11c0 .3.1.5.2.8.4 1 1.5 1.4 2.5 1.2l2.2-.6" fill="none" stroke="#1a1a1a" stroke-width="1.088" stroke-linecap="round" stroke-linejoin="round" stroke-miterlimit="10"/><path class="st5" d="M75.1 41.3c-.2.3-.9 4-.9 4l-12.3 1.4 3.9-2.8c1-.6 2.1-1.1 3.3-1.3l6-1.3zM85.3 43.8l.2 1.2 12.3 1.4-3.9-2.8c-1-.7-2.1-1.1-3.3-1.3l-3.1-.6c-1.3-.4-2.5.8-2.2 2.1zM73.3 51.6c0 1.2-1 2.2-2.2 2.2-1.2 0-2.2-1-2.2-2.2 0-1.2 1-2.2 2.2-2.2 1.3 0 2.2 1 2.2 2.2zM93.4 51.6c0 1.2-1 2.2-2.2 2.2-1.2 0-2.2-1-2.2-2.2 0-1.2 1-2.2 2.2-2.2 1.2 0 2.2 1 2.2 2.2z"/><g><path class="st2" d="M104.1 54.3s2.4-3.5 5.3-1.8 2 8 0 11.1c-2 3.1-5.1 4.7-6.9 2.3"/><path class="st3" d="M109.1 56.5s-3.2-1.1-5.6 3.7M105.1 57.8s3.5 1.9 1.2 4.7"/></g><g><path d="M65.6 77.1s4.6 9.2 12.1 13.5c5.5 3.1 12.5 1.9 16.2-3.2 1.8-2.5 3.3-6.2 3.3-11.7 0 0-5.8 7.5-14.8 7.9-8.9.4-16.8-6.5-16.8-6.5z"/><g id="XMLID_1_"><path class="st1" d="M140.1 139.4H22.3c0-13.7 9.7-23.9 17.2-29.8 3.9-3.1 8.4-5.4 13.2-7 4.1-1.3 9.9-3.8 12.5-7.9 0 0 13.9 14 32.1 0 0 0 8.4 6.6 12.5 7.9 4.8 1.6 9.2 3.9 13.2 7 7.4 5.9 17.1 16.1 17.1 29.8z"/><path class="st6" d="M65.2 76.7v18.1M97.2 75.8v19M22.3 139.4c0-13.7 9.7-23.9 17.2-29.8 3.9-3.1 8.4-5.4 13.2-7 4.1-1.3 9.9-3.8 12.5-7.9 0 0 13.9 14 32.1 0 0 0 8.4 6.6 12.5 7.9 4.8 1.6 9.2 3.9 13.2 7 7.5 5.9 17.2 16.1 17.2 29.8"/></g><path class="st7" d="M57.6 100.7s20.6 24 49 1.6M32.7 116.3h97.1M23 135.8h116.5M26 126.1h110.9"/></g><path d="M73.7 69.5s3.5 2.5 7.8 2.5 7.2-2.5 7.2-2.5" fill="none" stroke="#1a1a1a" stroke-width="1.082" stroke-linecap="round" stroke-linejoin="round" stroke-miterlimit="10"/><path class="st5" d="M65.2 21.1s12 13.6 21.1 15.1c9.1 1.6 15.2 12.2 15.2 12.2s10.2-15.6 4.7-23.6-26.3-23.1-41-3.7z"/><path class="st5" d="M78.4 22s-18 16.1-19.5 16.7 0 17.7 0 17.7-5.1-6-5.7-8.4c-.8-3.7-5.6-37.6 25.2-26zM83.1 22s18 16.1 19.5 16.7c1.5.6 0 17.7 0 17.7s5.1-6 5.7-8.4c.9-3.7 5.7-37.6-25.2-26z"/><g><path class="st9" d="M125.9 69.2c-1.1-2.4-4.3-6.7-7.3-4.7-2.5 1.7-1.3 5.6.3 7.5 1.2 1.5 3.8 3.2 5.6 1.8 1-.8 1.5-3.1 1.4-4.6zM135 82c-2.7-6.4-9-.4-4.7 2.7 1.4 1 2.8 1.5 4 .2.8-.9 1.1-2.3.5-3.3M120.7 86.9c-4.3-6.9-11.5 1.9-5.4 4.6 3.4 1.5 5.2-1.5 5.4-4.6zM128.1 99c-2.3-.4-4.6-.3-5.3 2.3 1.2 1.1 3.4 2.2 5 1.2 1-.6 2-2.8.7-3.5M141.9 71.6c-.2-3.2-5.3-5.9-4.7-1.2.5 3.1 4.1 5 4.7 1.2M110 76.7c.4-2.2-.6-3.6-2.8-4.3-1.7-.6-2.5-.3-2.8 1.5-.4 2.7 5.4 6.1 5.6 2.8zM140.7 98.8c-.6-.8-2-3.1-3.3-2.2-.9.7-.3 1.8.1 2.5s1.4 2.2 2.5 1.9c.7-.2 1.2-1.5.6-2.1M153.8 85.2c-.9-1.5-3.7-3.6-5.3-2-1.3 1.3-.1 2.6 1.1 3.3 1.6.9 3.8.7 4.2-1.3zM155.3 99c-.8-1-2.9-2.7-4.3-1.9-1.1.6-1.3 2.1-.5 3 1.1 1.3 4.4 1.1 4.8-1.1z"/></g><g><path class="st10" d="M29.7 14.3c-6.6 5.3-8.8 10.4-2.3 16.3 3.3 3.1 6.4 7.2 11.5 4.9 3.3-1.5 9.3-7 10.4-10.4 1.6-5.1-4-7.2-7.4-9.2-2.7-1.5-9.5-6-12.2-1.6zM14.3 39.1c2.1-3.4 2.3-6.1-1.5-7.8-2-.9-4-2.3-6-.4-1.3 1.2-3.1 4.6-3 6.3.1 2.6 3 2.6 4.8 3 1.4.3 5.2 1.3 5.7-1.1zM42 59.3c2.3-3.7 2.5-6.6-1.7-8.4-2.2-.9-4.4-2.4-6.5-.4-1.4 1.3-3.4 5-3.3 6.9.1 2.8 3.2 2.8 5.2 3.2 1.7.3 5.7 1.3 6.3-1.3z"/></g></svg>