<svg width="46" height="51" fill="none" xmlns="http://www.w3.org/2000/svg"><path d="M17.602 34.422c.22 1.21.644 2.148 1.27 2.812.624.651 1.536.977 2.733.977 1.38 0 2.429-.482 3.145-1.445.73-.977 1.094-2.2 1.094-3.672 0-1.446-.339-2.663-1.016-3.653-.677-1.002-1.732-1.503-3.164-1.503-.677 0-1.263.084-1.758.253-.872.313-1.53.892-1.972 1.739l-5-.235 1.992-15.644H30.53v4.726H18.95l-1.015 6.192c.859-.56 1.53-.931 2.011-1.114.808-.299 1.79-.449 2.95-.449 2.343 0 4.388.788 6.132 2.364 1.745 1.575 2.617 3.867 2.617 6.875 0 2.617-.84 4.954-2.519 7.011-1.68 2.058-4.193 3.086-7.54 3.086-2.694 0-4.908-.722-6.64-2.168-1.732-1.445-2.695-3.496-2.89-6.152h5.547z" fill="#8A2BE2"/><circle cx="23" cy="28" r="21.5" stroke="#8A2BE2" stroke-width="3"/></svg>