<svg version="1.1" id="Layer_1" xmlns="http://www.w3.org/2000/svg" x="0" y="0" viewBox="0 0 31 31" xml:space="preserve"><style>.st0{fill-rule:evenodd;clip-rule:evenodd;fill:#006443}</style><path class="st0" d="M15.5 3.1c-3.3 0-6.4 1.3-8.8 3.6-2.3 2.2-3.6 5.3-3.6 8.6v9.2c0 .8-.7 1.5-1.5 1.5-.9 0-1.6-.7-1.6-1.5v-9.2c0-4.1 1.6-7.9 4.5-10.8C7.4 1.6 11.4 0 15.5 0s8.1 1.6 11 4.5c2.9 2.9 4.5 6.8 4.5 10.8v9.2c0 .8-.7 1.5-1.5 1.5-.9 0-1.6-.7-1.6-1.5v-9.2c0-3.2-1.3-6.4-3.6-8.7-2.4-2.3-5.5-3.5-8.8-3.5z"/><path class="st0" d="M0 18.6c0-.9.7-1.6 1.5-1.6h4.6c1.2 0 2.4.5 3.3 1.4.9.9 1.4 2.1 1.4 3.3v4.7c0 1.2-.5 2.4-1.4 3.3-.8.8-2 1.3-3.2 1.3H4.7c-1.2 0-2.4-.5-3.3-1.4-.9-.8-1.4-2-1.4-3.3v-7.7zm3.1 1.5v6.2c0 .4.2.8.5 1.1.3.3.7.5 1.1.5h1.5c.4 0 .8-.2 1.1-.5.3-.3.5-.7.5-1.1v-4.7c0-.4-.2-.8-.5-1.1-.3-.3-.7-.5-1.1-.5H3.1zm21.7 0c-.4 0-.8.2-1.1.5-.3.3-.5.7-.5 1.1v4.7c0 .4.2.8.5 1.1.3.3.7.5 1.1.5h1.6c.4 0 .8-.2 1.1-.5.3-.3.5-.7.5-1.1v-6.2h-3.2zm-3.3-1.7c.9-.9 2.1-1.4 3.3-1.4h4.7c.9 0 1.5.7 1.5 1.6v7.8c0 1.2-.5 2.4-1.4 3.3-.9.9-2.1 1.4-3.3 1.4h-1.6c-1.2 0-2.4-.5-3.3-1.4-.9-.9-1.4-2.1-1.4-3.3v-4.7c.1-1.3.6-2.5 1.5-3.3z"/></svg>