<svg version="1.1" id="Layer_1" xmlns="http://www.w3.org/2000/svg" x="0" y="0" viewBox="0 0 300 300" xml:space="preserve"><style>.st0{fill:#c48e6a}.st2{fill:#006443}</style><path class="st0" d="M178.5 34.4c-17.9-4.6-36.5-3.3-54 9.4C116 50 110.1 59 104.9 68.2 93.1 89.2 76 120 80.2 144.8c1.8 11 7.9 20.8 14.1 30 20.6 30.6 46.8 61 87.1 58 20.4-1.5 39.6-10 57.4-19.9 23.7-13.1 50.6-32.3 53.7-61.5 3.7-34.1-32.2-65.2-56-84.4-16.3-13.3-36.7-27.2-58-32.6z"/><path d="M114.6 65.5c-3.2-.8-6.4-1.4-9.7-1.8-3.3-.4-6.5-.6-9.8-.5-3.3.1-6.6.4-9.8 1.1l-1.2.2-1.1.2-2.4.6c-1.6.5-3.1 1-4.6 1.6-6.1 2.3-11.8 5.8-16.9 9.8-5 4.2-9 9.4-12.5 14.9-1.7 2.8-3.3 5.6-4.9 8.5l-4.7 8.7c-3.1 5.8-6.1 11.7-8.8 17.6-2.7 6-5.2 12-7.1 18.2-1.9 6.2-3.4 12.6-3.9 19L17 166v4.8l.2 2.4c.2 3.2 1 6.3 2 9.4 2 6.1 5.2 11.9 8.6 17.5 3.5 5.6 7.2 11 11 16.4 3.9 5.3 7.9 10.5 12.3 15.4 2.2 2.5 4.4 4.8 6.8 7.1 2.3 2.3 4.8 4.5 7.3 6.5 5.1 4.1 10.6 7.8 16.5 10.6 11.7 5.8 25.2 8 38.1 6.4 6.5-.7 12.9-2.2 19.1-4.1 6.2-1.9 12.3-4.4 18.3-7.1 5.9-2.8 11.8-5.8 17.5-9 5.7-3.2 11.3-6.6 16.7-10.3 5.4-3.7 10.5-7.8 15.2-12.3 4.7-4.5 8.9-9.4 12.4-14.9 3.4-5.4 6-11.4 7.3-17.6 1.3-6.3 1.5-12.7.2-19-.6-3.1-1.5-6.2-2.6-9.2-1.1-3-2.5-5.9-4-8.8-1.5-2.8-3.2-5.6-5.1-8.3-1.8-2.7-3.8-5.3-5.8-7.8-8.2-10.2-17.7-19.3-27.6-27.9-5-4.3-10-8.6-15.1-12.6-5.2-4.1-10.5-8-16-11.6-11-7.1-22.9-13.2-35.7-16.5zm.1-.3c6.4 1.6 12.6 4 18.6 6.8 6 2.7 11.8 6 17.4 9.4 5.6 3.5 11.1 7.2 16.4 11.2 5.3 4 10.5 8.1 15.6 12.2 10.2 8.4 20 17.4 28.5 27.6 4.3 5.1 8.1 10.6 11.4 16.5 1.6 2.9 3 6 4.3 9.1 1.2 3.1 2.2 6.4 2.9 9.7 1.4 6.6 1.2 13.6-.2 20.3-1.4 6.6-4.2 13-7.8 18.6-3.6 5.7-8.1 10.8-13 15.4s-10.2 8.7-15.6 12.4c-5.5 3.7-11.2 7.2-17 10.3-5.8 3.2-11.7 6.2-17.8 8.9-12.1 5.4-24.9 9.5-38.2 10.7-3.3.4-6.6.4-10 .3-3.3-.2-6.6-.5-9.9-1.1-6.5-1.2-12.9-3.4-18.8-6.3-6-2.9-11.5-6.6-16.6-10.8-5.1-4.2-9.9-8.8-14.3-13.7-4.5-4.9-8.6-10.1-12.5-15.4-4-5.3-7.8-10.7-11.4-16.2-3.6-5.5-7-11.3-9.2-17.7-.6-1.6-1.1-3.2-1.4-4.8-.2-.8-.4-1.7-.5-2.5-.1-.8-.2-1.7-.3-2.5l-.3-2.5-.1-2.5-.1-2.5.2-2.5c.4-6.7 1.9-13.3 3.9-19.6 2-6.4 4.5-12.5 7.3-18.5s5.9-11.9 9.1-17.6c1.6-2.9 3.2-5.8 4.9-8.6 1.6-2.9 3.4-5.7 5.2-8.5 3.7-5.5 7.9-10.8 13.2-14.9 5.3-4 11.1-7.3 17.4-9.5 6.2-2.2 12.9-3.4 19.5-3.5 3.3-.1 6.6.2 9.9.6 2.9.2 6.1.9 9.3 1.7z" fill="#fbb158"/><path class="st2" d="M256.2 198.3L215.7 178c-8.7-4.3-18.7-5.7-28.2-3.8l-58.1 11.6L83.8 167c-5.1-2.1-10.9-1.6-15.4 1.5-3.6 2.4-6 6-6.9 10.3-5-1.7-10.4-1-14.8 1.9-4.7 3.2-7.6 8.4-7.6 14.4s3.2 11.6 8.4 14.6l88 51.4c8.1 4.7 17.6 6 26.7 3.6l51.6-13.7 37.8 25.2c.7.5 1.6.7 2.4.7.7 0 1.4-.2 2.1-.5 1.4-.8 2.3-2.3 2.3-3.9v-70.2c.2-1.7-.7-3.2-2.2-4zM73.3 175.7c2.2-1.4 4.8-1.7 7.2-.7l36 15c-3 2.2-5.2 5.3-6.3 8.9l-40.3-16.8c0-2.6 1.2-4.9 3.4-6.4zm176.5 88.6l-32.7-21.8c-.7-.5-1.6-.7-2.4-.7-.4 0-.8 0-1.1.1l-53.5 14.3c-6.8 1.8-13.9.9-20.1-2.7l-88-51.4c-2.5-1.5-4.1-4.2-4.1-7.3 0-2.8 1.3-5.3 3.6-6.8s5.1-1.8 7.7-.7l50.6 21.1c.9 3.6 2.9 6.8 5.8 9.2 4 3.3 9.2 4.6 14.3 3.6l7.1-1.4 10.1 4.2c.5.2 1.1.3 1.7.3h44.8c6.7 0 12.2-5.5 12.2-12.4 0-3.7-1.6-7.1-4.5-9.4-2.8-2.3-6.5-3.3-10.1-2.5l-54.6 10.9c-.1 0-.2 0-.3.1l-8.3 1.7c-2.5.5-5-.1-7-1.7-2-1.6-3.1-4-3.1-6.8 0-4 2.8-7.4 6.7-8.2l64.2-12.8c7.6-1.5 15.6-.4 22.6 3l38.1 19.1v59zm-91.7-48.9l34.9-7c1.4-.3 2.4.3 2.9.7s1.3 1.2 1.3 2.8c0 1.9-1.5 3.4-3.4 3.4h-35.7zM124 106c-1.7 0-3.2.9-4.1 2.3 0 0-4.1 6.3-12.8 11.5-2.4 1.4-3.1 4.5-1.7 6.8 1.4 2.4 4.5 3.1 6.9 1.7 1.8-1.1 3.4-2.2 4.9-3.3 1.1-.8 2-.4 2 .9v15c0 2.8 2.2 5 5 5s5-2.2 5-5v-15.3c0-1.4.8-1.7 1.9-.8 6.5 5.4 16.9 11.1 33.1 11.1 16.2 0 26.6-5.7 33.1-11.1 1.1-.9 1.9-.5 1.9.8V141c0 2.8 2.2 5 5 5s5-2.2 5-5v-15c0-1.4.9-1.8 2-.9 1.5 1.1 3.1 2.2 4.9 3.3 2.4 1.4 5.4.6 6.9-1.7 1.4-2.4.6-5.4-1.7-6.8-8.7-5.2-12.8-11.5-12.8-11.5-2-3-6.4-3-8.4 0 0 0-11.3 17.7-35.8 17.7s-35.8-17.7-35.8-17.7c-1.2-1.6-2.8-2.4-4.5-2.4zM129.1 26.1c-5.4 0-10 4.5-10 10v50c0 5.4 4.5 10 10 10H199c5.4 0 10-4.5 10-10v-50c0-5.4-4.5-10-10-10h-69.9zm37.4 10h30c1.4 0 2.5 1.1 2.5 2.5v45c0 1.4-1.1 2.5-2.5 2.5h-15.6c-1.5 0-2.9-.9-3.6-2.2L172 73.4c-.7-1.4-2.1-2.2-3.6-2.2H164c-2.2 0-3.9-1.7-3.9-3.9 0-.3 0-.6.1-.9l3.2-12.7c.4-1.6.6-3.3.6-4.9v-10c0-1.6 1.1-2.7 2.5-2.7zm12.5 10c-2.8 0-5 2.2-5 5s2.2 5 5 5 5-2.2 5-5-2.2-5-5-5z"/><path class="st0" d="M492.9 34.6c-6.4 6.7-11.6 14.7-15.3 22.7-2.1 4.5-3.8 9.3-4.1 14.2-1.6 23.6 28.4 27.7 45.8 26.2 9.1-.8 18.9-2.5 27.4-5.7 13.8-5.3 23.4-19.5 27.9-33.2 3.5-10.7 2.3-24.1-6.6-31.6-6.5-5.4-17.6-10.2-26.1-10.1-13.3.2-28 1.5-39.3 9.2-3.5 2.4-6.7 5.2-9.7 8.3z"/></svg>