<svg version="1.1" id="Layer_1" xmlns="http://www.w3.org/2000/svg" x="0" y="0" viewBox="0 0 300 300" xml:space="preserve"><style>.st3{fill:#006443}</style><path d="M222.1 232.9c13.3-9.7 25.1-21.4 35.1-34.5 9.9-13.1 18.2-27.5 24.2-42.8 2.9-7.6 5.1-15.6 5.5-23.8.4-8.1-1-16.3-3.9-23.9-3-7.6-7.1-14.7-11.9-21.3-4.8-6.6-10.1-12.9-15.6-19s-10.9-12.3-16.6-18.3c-5.7-5.9-11.6-11.6-18.3-16.4-6.6-4.8-14.1-8.4-21.9-11-7.8-2.6-15.9-4.1-24.1-4.7-16.4-1.2-33 1.1-48.5 6.5-7.8 2.7-15.2 6.3-22 10.9-6.8 4.6-12.9 10.2-18.5 16.2-11.1 12-20.2 25.8-29.6 39.3-4.6 6.8-9.5 13.5-14.4 20.1-4.8 6.7-9.6 13.4-13.7 20.5-2 3.6-3.9 7.2-5.4 11-1.5 3.8-2.8 7.6-3.7 11.6-1.9 7.9-2.4 16.1-1.7 24.2.7 8.1 2.8 16.1 6.1 23.5 3.3 7.4 7.9 14.2 13.7 20 5.7 5.7 12.5 10.5 20 13.7 7.5 3.2 15.4 5.3 23.4 7.4 4 1 8 2.2 11.9 3.3 4 1.1 7.9 2.2 11.9 3.1 8 1.9 16 3.6 24.2 4.8 8.1 1.2 16.3 1.9 24.5 1.8 8.2-.1 16.4-.9 24.5-2.5 16-3.4 31.4-10.2 44.8-19.7zm.1.1c-13.4 9.7-28.8 16.5-44.9 20-8.1 1.8-16.3 2.7-24.6 2.9-8.3.2-16.5-.3-24.7-1.4-8.2-1.1-16.3-2.6-24.4-4.5-4-.9-8-2-12-3-4-1.1-7.9-2.2-11.9-3.2-8-2-16-4.1-23.7-7.4-7.7-3.3-14.7-8.2-20.6-14.1-11.9-11.9-19-28.1-20.4-44.7-.7-8.3-.1-16.8 1.9-24.9 1-4.1 2.3-8 3.9-11.9 1.6-3.9 3.5-7.6 5.6-11.1 4.1-7.2 9-13.9 13.9-20.6 4.9-6.6 9.8-13.2 14.5-20C64.3 75.6 73.6 61.9 85 49.9c5.7-6 11.9-11.5 18.8-16.1 6.9-4.6 14.4-8.2 22.2-10.9 7.8-2.7 15.9-4.6 24.1-5.7 8.2-1.1 16.5-1.4 24.7-.8 8.2.6 16.4 2.1 24.3 4.6 7.9 2.5 15.5 6.1 22.3 10.9 6.8 4.8 12.9 10.4 18.7 16.3 2.9 3 5.7 6 8.5 9s5.6 6.1 8.3 9.1c5.5 6.1 10.9 12.4 15.8 19.1 4.8 6.7 9.1 13.9 12.1 21.7 2.9 7.8 4.3 16.2 3.9 24.6-.5 8.4-2.9 16.4-5.9 24.1-6.3 15.3-14.8 29.6-25 42.6-10.3 13.3-22.1 25-35.6 34.6z" fill="#ffa188"/><path d="M164.9 205.89999999999998c-27.7 7.2-58.8 1.1-82.5-14.5-6.1-4-12-9.1-14-16-2.2-7.6.8-15.6 4.7-22.5 7.7-13.6 19.1-24.6 30.9-34.8 9.5-8.1 19.5-15.9 30.8-21.2s24.1-8.2 36.4-6.3c13.4 2.1 25.3 9.7 36.3 17.8 17.5 13 30.6 31.7 14.1 51.6-6.6 7.9-15.5 13.7-22.9 20.8-11.1 10.8-18.4 21.1-33.8 25.1m6.9 26c4.4-1.6 8.7-3.5 12.8-5.7 19.3-10.3 32.2-27.5 48.1-41.9 10.5-9.6 21.1-19.8 23.6-34.5 3.5-20.4-9.4-42.3-23.8-55.7-25.2-23.6-60.7-36-93.2-27.6-9 2.3-17.7 6.3-25.9 12-34.6 24.2-91.8 67-65.1 116.6 11.3 21 54.3 35.2 76.5 40.4 15.7 3.7 32 1.9 47-3.6z" fill="#fff2e3"/><path d="M168 179c8.4-2.1 18.5-11.3 23-18.6 4.4-7.1 3.3-15.1-1.5-21.7-11.2-15.2-29.2-16.7-46.6-13.9-15.6 2.5-49 14.7-39.4 36.9 4.8 11.1 18.7 9.3 28.4 10.9 7.3 1.2 14.3 3.8 21.6 5.2 5.2 1.1 9.1 1.2 14.5 1.2z" fill="#4eb49c"/><g><path class="st3" d="M152 24.7c-58.7 0-106.4 47.8-106.4 106.5 0 32.1 26 68.4 51 98.6 25 30.2 49.9 53.5 49.9 53.5 3.1 2.9 8 2.9 11.1 0 0 0 24.9-23.3 49.9-53.5s51.1-66.5 51.1-98.6C258.5 72.5 210.7 24.7 152 24.7zm0 16.3c49.9 0 90.2 40.3 90.2 90.1 0 22.2-23.1 59-47.3 88.2-21.4 25.9-38.2 41.5-42.9 45.9-4.6-4.4-21.5-20-42.9-45.9-24.2-29.3-47.3-66-47.3-88.2C61.8 81.3 102.2 41 152 41z"/></g><g><path class="st3" d="M196.2 163.1H108c-.8 0-1.5.7-1.5 1.5v4.6c0 .8.7 1.5 1.5 1.5h88.3c.8 0 1.5-.7 1.5-1.5v-4.6c0-.8-.7-1.5-1.6-1.5zM154.4 158c.8 0 1.5-.7 1.5-1.5v-29c0-.8-.7-1.5-1.5-1.5h-4.6c-.8 0-1.5.7-1.5 1.5v29c0 .8.7 1.5 1.5 1.5h4.6zM170.4 158c.8 0 1.5-.7 1.5-1.5v-29c0-.8-.7-1.5-1.5-1.5h-4.6c-.8 0-1.5.7-1.5 1.5v29c0 .8.7 1.5 1.5 1.5h4.6zM138.4 158c.8 0 1.5-.7 1.5-1.5v-29c0-.8-.7-1.5-1.5-1.5h-4.6c-.8 0-1.5.7-1.5 1.5v29c0 .8.7 1.5 1.5 1.5h4.6zM122.5 158c.8 0 1.5-.7 1.5-1.5v-29c0-.8-.7-1.5-1.5-1.5h-4.6c-.8 0-1.5.7-1.5 1.5v29c0 .8.7 1.5 1.5 1.5h4.6zM186.3 158c.8 0 1.5-.7 1.5-1.5v-29c0-.8-.7-1.5-1.5-1.5h-4.6c-.8 0-1.5.7-1.5 1.5v29c0 .8.7 1.5 1.5 1.5h4.6zM197.2 114.4l-42.6-37.7c-1.4-1.3-3.6-1.3-5 0L107 114.4c-1.2 1-1.6 2.7-1 4.2s2 2.4 3.5 2.4h85.1c1.6 0 3-1 3.5-2.4.6-1.5.2-3.2-.9-4.2zm-45.1-5.7c-3.9 0-7.1-3.2-7.1-7.1s3.2-7.1 7.1-7.1c3.9 0 7.1 3.2 7.1 7.1s-3.2 7.1-7.1 7.1z"/></g></svg>