<svg width="41" height="41" fill="none" xmlns="http://www.w3.org/2000/svg"><mask id="a" fill="#fff"><path d="M18.746 5.073L31.264 17.59l-27.85.472a2.47 2.47 0 00-1.699.728 2.47 2.47 0 00-.727 1.698c-.012.632.229 1.234.668 1.673.44.44 1.041.68 1.674.669l27.851-.505L18.216 35.29a2.46 2.46 0 00-.725 1.691c-.011.63.228 1.23.666 1.667a2.292 2.292 0 001.666.666 2.46 2.46 0 001.691-.725l17.083-17.083a2.49 2.49 0 00.517-.78c.25-.585.262-1.238.032-1.814a2.264 2.264 0 00-.49-.763L22.162 1.656A2.293 2.293 0 0020.496.99a2.46 2.46 0 00-1.691.725 2.46 2.46 0 00-.725 1.691c-.011.63.228 1.23.666 1.667z"/></mask><path d="M18.746 5.073L31.264 17.59l-27.85.472a2.47 2.47 0 00-1.699.728 2.47 2.47 0 00-.727 1.698c-.012.632.229 1.234.668 1.673.44.44 1.041.68 1.674.669l27.851-.505L18.216 35.29a2.46 2.46 0 00-.725 1.691c-.011.63.228 1.23.666 1.667a2.292 2.292 0 001.666.666 2.46 2.46 0 001.691-.725l17.083-17.083a2.49 2.49 0 00.517-.78c.25-.585.262-1.238.032-1.814a2.264 2.264 0 00-.49-.763L22.162 1.656A2.293 2.293 0 0020.496.99a2.46 2.46 0 00-1.691.725 2.46 2.46 0 00-.725 1.691c-.011.63.228 1.23.666 1.667z" fill="#8A2BE2"/><path d="M31.264 17.591l.17 9.999 23.572-.4-16.67-16.67-7.072 7.071zm-27.85.472l-.17-9.998h-.006l.175 9.998zm-1.699.728l-7.07-7.071 7.07 7.07zm1.615 4.04l.175 9.998h.006l-.181-9.998zm27.851-.505l7.071 7.07 17.52-17.518-24.772.45.181 9.998zm7.416-.819l7.071 7.071.041-.04.041-.043-7.153-6.988zm.517-.78l-9.195-3.932-.017.041-.018.042 9.23 3.848zm.032-1.814l-9.325 3.613.018.045.017.044 9.29-3.702zm-.49-.763l7.159-6.982-.044-.045-.044-.044-7.071 7.07zm-26.981-6.006l12.518 12.518L38.335 10.52 25.817-1.998 11.675 12.144zm19.42-4.551l-27.851.472.339 19.997 27.85-.472-.338-19.997zm-27.857.472a12.47 12.47 0 00-8.594 3.655L8.786 25.862a7.53 7.53 0 01-5.197 2.2L3.238 8.065zm-8.594 3.655a12.47 12.47 0 00-3.655 8.594l19.997.35a7.53 7.53 0 01-2.2 5.198L-5.356 11.72zm-3.655 8.594a12.302 12.302 0 003.596 8.92L8.727 15.09a7.698 7.698 0 012.259 5.573l-19.997-.35zm3.596 8.92a12.302 12.302 0 008.92 3.595l-.35-19.997a7.698 7.698 0 015.572 2.26L-5.415 29.232zm8.926 3.595l27.852-.505L31 12.327l-27.852.506.363 19.996zm20.6-17.575L11.144 28.22l14.142 14.142 12.965-12.965L24.11 15.255zM11.144 28.22a12.46 12.46 0 00-3.653 8.587l19.997.35a7.54 7.54 0 01-2.202 5.205L11.145 28.22zm-3.653 8.587a12.293 12.293 0 003.594 8.913l14.142-14.142a7.708 7.708 0 012.261 5.58l-19.997-.351zm3.594 8.913a12.292 12.292 0 008.913 3.593l-.351-19.997a7.708 7.708 0 015.58 2.262L11.086 45.72zm8.913 3.593a12.46 12.46 0 008.586-3.652L14.443 31.519a7.54 7.54 0 015.205-2.203l.35 19.997zm8.586-3.652l17.083-17.083-14.142-14.142L14.443 31.52 28.585 45.66zM45.75 28.495a12.49 12.49 0 002.594-3.92l-18.46-7.697c.37-.885.9-1.684 1.56-2.359L45.75 28.495zm2.559-3.837a12.375 12.375 0 00.127-9.447l-18.58 7.404a7.624 7.624 0 01.063-5.82l18.39 7.863zm.161-9.358a12.263 12.263 0 00-2.655-4.132L31.497 25.132a7.736 7.736 0 01-1.675-2.606L48.47 15.3zm-2.743-4.221L29.233-5.415 15.091 8.727l16.494 16.494 14.142-14.142zM29.233-5.415a12.292 12.292 0 00-8.913-3.593l.351 19.997a7.708 7.708 0 01-5.58-2.262L29.233-5.415zM20.32-9.008a12.46 12.46 0 00-8.586 3.652L25.876 8.786a7.54 7.54 0 01-5.205 2.203l-.35-19.997zm-8.586 3.652A12.46 12.46 0 008.08 3.231l19.997.35a7.54 7.54 0 01-2.202 5.205L11.734-5.356zM8.08 3.231a12.292 12.292 0 003.594 8.913L25.817-1.998a7.708 7.708 0 012.261 5.58L8.081 3.23z" fill="#8A2BE2" mask="url(#a)"/></svg>