<svg version="1.1" id="Layer_1" xmlns="http://www.w3.org/2000/svg" x="0" y="0" viewBox="0 0 344 96" xml:space="preserve"><style>.st0{fill:#fff}</style><path class="st0" d="M66.8 39.4l6.5 17.7 6.8-17.7h2.8v20.2H81V42.2h-.1l-6.7 17.4h-1.8l-6.5-17.4h-.1v17.4H64V39.4h2.8zM97.9 39.4v12.9c0 1 .1 2 .4 3 .3.9.7 1.7 1.4 2.4.6.7 1.4 1.3 2.4 1.7 1 .4 2.1.6 3.5.6s2.5-.2 3.5-.6c1-.4 1.8-1 2.4-1.7.6-.7 1.1-1.5 1.4-2.4.3-.9.4-1.9.4-3V39.4h-1.9v12.5c0 1.2-.1 2.2-.4 3-.3.8-.6 1.5-1.1 2-.5.5-1.1.9-1.8 1.1-.7.2-1.5.3-2.5.3-.9 0-1.7-.1-2.4-.3-.7-.2-1.3-.6-1.8-1.1-.5-.5-.9-1.2-1.1-2-.3-.8-.4-1.8-.4-3V39.4h-2zM129.2 53h-1.9c-.1 1.2.1 2.3.5 3.2.4.9.9 1.6 1.6 2.2.7.6 1.5 1 2.5 1.3 1 .3 2.1.4 3.2.4s2.2-.1 3-.3c.8-.2 1.5-.5 2.1-.8.6-.4 1-.8 1.3-1.2.3-.4.6-.9.7-1.3.2-.4.3-.8.3-1.2.1-.4.1-.7.1-.9 0-.8-.1-1.5-.4-2.1-.3-.6-.6-1.1-1.1-1.5-.5-.4-1-.8-1.6-1-.6-.3-1.3-.5-2-.7l-4.8-1.2c-.4-.1-.8-.2-1.2-.4-.4-.2-.7-.3-.9-.6-.3-.2-.5-.5-.7-.9-.1-.4-.2-.8-.2-1.2 0-.8.1-1.4.4-1.9.3-.5.6-.9 1.1-1.2.5-.3 1-.5 1.6-.7.6-.2 1.2-.2 1.9-.2s1.4.1 2 .3c.6.2 1.2.5 1.7.9s.9.9 1.2 1.4c.3.6.5 1.2.5 2h1.9c0-1-.2-1.9-.6-2.7-.4-.8-.9-1.5-1.6-2-.7-.5-1.4-.9-2.3-1.2-.9-.3-1.8-.4-2.8-.4-1.4 0-2.5.2-3.4.6-.9.4-1.6.9-2.1 1.5s-.8 1.2-1 1.9c-.2.7-.3 1.2-.3 1.7 0 .8.1 1.5.4 2 .3.5.6 1 1 1.4.4.4.9.7 1.4.9.6.2 1.1.4 1.7.6l4.4 1.1c.5.1.9.3 1.4.5.5.2.9.4 1.3.7.4.3.7.6 1 1 .3.4.4.9.4 1.5 0 .7-.2 1.4-.5 1.9-.4.5-.8.9-1.3 1.3-.5.3-1.1.6-1.7.7-.6.2-1.2.2-1.7.2-.9 0-1.7-.1-2.5-.3-.8-.2-1.5-.5-2.1-.9-.6-.4-1-1-1.4-1.7-.4-.8-.6-1.7-.5-2.7zM157 39.4v20.2h13.7V58h-11.9v-8h11v-1.6h-11v-7.3h11.7v-1.6H157zM184.5 39.4v12.9c0 1 .1 2 .4 3 .3.9.7 1.7 1.4 2.4.6.7 1.4 1.3 2.4 1.7 1 .4 2.1.6 3.5.6s2.5-.2 3.5-.6c1-.4 1.8-1 2.4-1.7.6-.7 1.1-1.5 1.4-2.4.3-.9.4-1.9.4-3V39.4H198v12.5c0 1.2-.1 2.2-.4 3-.3.8-.6 1.5-1.1 2-.5.5-1.1.9-1.8 1.1-.7.2-1.5.3-2.5.3-.9 0-1.7-.1-2.4-.3-.7-.2-1.3-.6-1.8-1.1-.5-.5-.9-1.2-1.1-2-.3-.8-.4-1.8-.4-3V39.4h-2zM217.6 39.4l6.5 17.7 6.8-17.7h2.8v20.2h-1.9V42.2h-.1L225 59.6h-1.8l-6.5-17.4h-.1v17.4h-1.9V39.4h2.9zM247.9 39.4V41H260l-13 16.8v1.7h15.4V58h-13.3l13-16.8v-1.7h-14.2zM276.2 39.4v20.2h1.9V39.4h-1.9zM293.5 39.4v20.2h1.9V42.5h.1L307 59.6h2.1V39.4h-1.9v17.1h-.2l-11.5-17.1h-2zM324.3 39.4v20.2H338V58h-11.9v-8h11v-1.6h-11v-7.3h11.7v-1.6h-13.5z"/><path d="M5 32H4v31h39V32h-2L23 63 5 32z" fill-rule="evenodd" clip-rule="evenodd" fill="#fff"/></svg>