<svg width="46" height="52" fill="none" xmlns="http://www.w3.org/2000/svg"><path d="M17.523 33.309c0 1.132.183 2.07.547 2.812.677 1.367 1.908 2.05 3.692 2.05a4.076 4.076 0 002.851-1.112c.82-.756 1.23-1.836 1.23-3.243 0-1.862-.755-3.105-2.265-3.73-.86-.352-2.213-.527-4.062-.527v-3.985c1.81-.026 3.073-.202 3.789-.527 1.237-.547 1.855-1.654 1.855-3.32 0-1.081-.319-1.96-.957-2.637-.625-.677-1.51-1.016-2.656-1.016-1.315 0-2.285.417-2.91 1.25-.612.834-.905 1.947-.88 3.34h-5.195c.053-1.406.293-2.74.723-4.004.456-1.107 1.172-2.129 2.149-3.066.729-.664 1.595-1.172 2.597-1.524 1.003-.351 2.233-.527 3.692-.527 2.708 0 4.889.703 6.543 2.11 1.666 1.393 2.5 3.268 2.5 5.624 0 1.667-.495 3.073-1.485 4.22-.625.715-1.276 1.204-1.953 1.464.508 0 1.237.436 2.188 1.309 1.419 1.315 2.129 3.111 2.129 5.39 0 2.396-.834 4.505-2.5 6.328-1.654 1.81-4.108 2.715-7.364 2.715-4.01 0-6.797-1.309-8.36-3.926-.82-1.393-1.275-3.216-1.366-5.468h5.468z" fill="#8A2BE2"/><circle cx="23" cy="29" r="21.5" stroke="#8A2BE2" stroke-width="3"/></svg>