<svg width="46" height="52" viewBox="0 0 46 52" fill="none" xmlns="http://www.w3.org/2000/svg">
<path d="M12.25 42C12.3021 39.9688 12.7383 38.1133 13.5586 36.4336C14.3529 34.5456 16.2279 32.5469 19.1836 30.4375C21.7487 28.6016 23.4089 27.2865 24.1641 26.4922C25.3229 25.2552 25.9023 23.901 25.9023 22.4297C25.9023 21.2318 25.5703 20.2357 24.9062 19.4414C24.2422 18.6471 23.2917 18.25 22.0547 18.25C20.362 18.25 19.2096 18.8815 18.5977 20.1445C18.2461 20.8737 18.0378 22.0326 17.9727 23.6211H12.5625C12.6536 21.2122 13.0898 19.2656 13.8711 17.7812C15.3555 14.9557 17.9922 13.543 21.7812 13.543C24.776 13.543 27.1589 14.3763 28.9297 16.043C30.7005 17.6966 31.5859 19.8906 31.5859 22.625C31.5859 24.7214 30.9609 26.5833 29.7109 28.2109C28.8906 29.2917 27.543 30.4961 25.668 31.8242L23.4414 33.4062C22.0482 34.3958 21.0911 35.112 20.5703 35.5547C20.0625 35.9974 19.6328 36.5117 19.2812 37.0977H31.6445V42H12.25Z" fill="#8A2BE2"/>
<circle cx="23" cy="29" r="21.5" stroke="#8A2BE2" stroke-width="3"/>
</svg>
