<?xml version="1.0" encoding="utf-8"?>
<!-- Generator: Adobe Illustrator 23.0.2, SVG Export Plug-In . SVG Version: 6.00 Build 0)  -->
<svg version="1.1" id="Layer_1" xmlns="http://www.w3.org/2000/svg" xmlns:xlink="http://www.w3.org/1999/xlink" x="0px" y="0px"
	 viewBox="0 0 300 300" style="enable-background:new 0 0 300 300;" xml:space="preserve">
<style type="text/css">
	.st0{fill:#FFE3D4;}
	.st1{fill:none;stroke:#C48E6A;stroke-width:3;stroke-miterlimit:10;}
	.st2{fill:#006443;}
</style>
<path class="st0" d="M55.2,65c-4.9,4.4-9.3,9.9-12.8,16.7C19.7,126.1,19.3,211,73.1,233.9c22.9,9.7,50.6,13.8,75,18.3
	c36.5,6.7,66.4,1.1,92.3-27.6c20.5-22.8,41.7-53.1,42.9-84.8c0.7-17.2-5.8-35.4-19.7-45.6c-11.4-8.4-26.1-10.6-40-13.7
	C176.2,69.9,99.3,26.1,55.2,65z"/>
<g>
	<path class="st1" d="M127.2,47.2c-1.3,5.5-2.7,11.1-7.5,14.7c-4.3,3.3-8.4,5.1-11.7,9.9c-3.1,4.5-5.6,8.8-7.6,13.8
		c-1.6,4-2.4,8.2-4.5,12c-2.6,4.6-6.1,8.9-10.8,11.6c-5.2,3-9,6.1-11.8,11.7c-3,6-3.8,13.3-5.4,19.8c-0.9,3.7-2.2,6.8-4.6,9.8
		c-3.3,4.2-8.3,6.8-11.8,10.8"/>
	<path class="st1" d="M119.8,41.5c-2.2,5.7-4.9,12.8-10.2,16.6c-2.3,1.7-4.7,2.6-6.7,4.8c-4.1,4.5-6.3,9.2-8.4,14.8
		c-3.4,8.9-6.5,16.8-13.8,23.5c-3.1,2.8-6.4,4.9-9.8,7.2c-4.2,2.8-7.3,7.5-9.7,11.9c-3.4,6.2-4.3,12.4-5.6,19.1
		c-0.9,4.6-2.6,9.3-5.9,12.6"/>
	<path class="st1" d="M111.9,35.5c-1.4,4.2-2.4,8.1-5.1,11.7c-1.7,2.3-4.5,4-6.8,5.6c-3.1,2.1-6.3,3.5-8.7,6.6
		c-3.7,4.8-6.1,10.1-7.8,15.8c-2.8,9.4-8.2,16.6-16.3,22c-9.4,6.2-13.1,14.9-16.2,25.5c-3.4,11.4-6.2,24.7-17.3,31"/>
	<path class="st1" d="M103.9,28.6c-1.3,3.8-1.6,7.6-4.4,10.8c-2.9,3.3-7.1,4.9-10.6,7.4c-4.7,3.5-8.1,7.6-11.3,12.6
		c-3,4.8-4.2,9.8-6.5,14.8C66.1,85.5,54.3,93,47.5,103.4c-2.3,3.5-4.6,6.8-6.4,10.6c-1.9,4-2.8,8.1-4.4,12.2
		c-1.6,4.1-3.2,7.9-5.5,11.6c-1,1.6-1.9,4.2-3.4,5.2"/>
</g>
<path class="st2" d="M120,105.2c-2,2.1-1.8,5.2-1.8,5.2l0,55.2l0,0.3c0.1,0.6,3.1,13.8,5.8,18.8c2.4,4.3,4.1,12.3,4.4,13.4V236h48.5
	v-38.3c3.3-4.3,31-40,28.5-51.9c-0.3-1.7-1.3-2.9-2.6-3.7c-8.3-4.4-15.8,7.9-20.3,15.2c-0.5,0.8-1,1.6-1.5,2.4l-0.1-57.5
	c0-2.5-1.5-7.2-7.2-7.2c-2.1,0-3.8,0.6-5,1.9c-1.7,1.8-1.8,4.2-1.8,5c0,0.1,0,0.2,0,0.2V145h-2.2l-0.1-54.1c0-2.5-1.5-7.2-7.2-7.2
	c-2.1,0-3.8,0.6-5,1.9c-2,2.1-1.8,5.2-1.8,5.2v47.8h-2.2l-0.1-42.4c0-2.5-1.5-7.2-7.2-7.2c-2.1,0-3.8,0.6-5,1.9
	c-2,2.1-1.8,5.2-1.8,5.2v46.4h-2.2l-0.1-32.3c0-2.5-1.5-7.2-7.2-7.2C122.9,103.3,121.2,103.9,120,105.2z"/>
</svg>
